<svg id="Groupe_68" data-name="Groupe 68" xmlns="http://www.w3.org/2000/svg" xmlns:xlink="http://www.w3.org/1999/xlink" width="2036.545" height="302.876" viewBox="0 0 2036.545 302.876">
  <defs>
    <clipPath id="clip-path">
      <rect id="Rectangle_78" data-name="Rectangle 78" width="2036.545" height="302.876" fill="none"/>
    </clipPath>
  </defs>
  <g id="Groupe_67" data-name="Groupe 67" transform="translate(0 0)" clip-path="url(#clip-path)">
    <path id="Tracé_7" data-name="Tracé 7" d="M798.436,89.916c-52.9,19.381-108.289,16.317-163.421,16.343-29.081.018-58.162,1.5-87.243,2.32-15.053,4.281-29.416,5.935-39.492-9.008-32.511-26.393-62.02,1.409-91.195,7.012-57.118,10.96-113.8-8.544-170.076,3.326-14.112,2.714-25.921-3.51-38.02-8.649-18.595-16.991-58.879-.91-64.686-37.467,10.691-21.736,32.371-19.74,52.029-20.379,46.595-1.523,92.276,7.152,138.041,13.385C379.448,62.954,423.6,64,466.9,48.764a283.911,283.911,0,0,0,55.049-6.329c44.414,9.384,89.125,26.34,129.112-12.4,11.651-11.284,29.3-6.522,36.491,5.042,17.831,28.651,42.27,28.249,71.621,21.893,16.889-3.659,34.04-.6,44.386,15.722,1.771,6.653.522,12.527-5.127,17.228" transform="translate(1200.714 182.996)" fill="#d17d3d"/>
    <path id="Tracé_8" data-name="Tracé 8" d="M459.739,47.581c21.624,8.824,54.107-9.734,66.168,23.172-31.374,17.315-68.862.516-100.571,15.923q-6.907,1.536-13.8,3.073c-18.688,4.123-36.165,10.487-56.27-.236-12.108-6.452-29.127-6.373-43.118,2.031l-48.934-.315C215.162,72.95,165.389,75.261,115.392,80.25c-9.433-7.712-10.4-17.184-6.636-27.68,20.618-31.549,54.07-28.476,82.955-20.405,78.938,22.069,157.736,21.815,237.512,8.307,11.539-1.952,21.363.893,30.516,7.108" transform="translate(887.842 207.456)" fill="#785716"/>
    <path id="Tracé_9" data-name="Tracé 9" d="M276.491,136.1c-49.158-.2-98.977-5.2-147.278.762C81.77,142.715,53.37,125.934,31.224,90.831c5.565-27.391-40.5-38.85-24.318-69.506C38.736,18.244,44.254,48.812,64.4,60.761,75.171,74.1,89.218,84.1,106.824,84.9c67.417,3.02,135.189,16.221,201.935-6.189,36.006-12.08,73-8.666,109.864-2.626,87.354,14.321,174.718,19.906,261.961-.945,7.513-1.8,15.715-3.808,22.92-2,80.28,20.151,162.536,12.816,244.018,16.177,11.064.455,21.522,2.766,27.226,13.288q-.07,10.728-.149,21.447c-58.563,19.329-119.427,10.837-178.717,8.693-52.392-1.908-103.824-4.963-156.766-1.5-89.377,5.865-179.285-1-268.541-11.231-32.846-3.764-64.519,1.462-94.084,16.09" transform="translate(28.635 163.672)" fill="#a9792e"/>
    <path id="Tracé_10" data-name="Tracé 10" d="M72.1,222.244c-18.819-10.33-21.578-32.127-36.565-45.188-4.474-29.991-10.933-59.22-24.514-87.25C-1.327,64.333-5.391,37.231,9.867,10.663,18.638,3.835,29.068,2.2,40.01,2.154c34.31,3.3,69.524-7.7,103.172,5.778,26.657,32.853,32.511,74.312,50.826,110.78,9.777,19.469,7.4,47.963-20.422,54.721-38.523,9.358-68.9,30.376-101.485,48.812" transform="translate(0.004 7.94)" fill="#fcaf56"/>
    <path id="Tracé_11" data-name="Tracé 11" d="M1107.131,6.391q13.953.276,27.9.56c7.373.455,14.121,2.425,19.77,7.091,17.6,33.1-1.92,72.421,20.03,104.723,19.415,27.662,53.166,25.22,77.623,20.8,37.926-6.846,21.857-39.918,20.068-64.149,1.184-24.169-28.736-52.5,10.682-71.537,11.521-1.681,23.181-1.777,34.785-2.364C1360.051,33.3,1330.168,74.4,1331.781,110.8c.811,18.374-4.036,35.086,17.243,43.087,30.731,11.555,61.032,2.565,88.8-9.262,21.764-9.27,10.514-26.734,4.008-41.353-1.65-10.794-3.859-21.57-1.212-32.5,12.369-21.114-19.984-49.53,12.3-67.387,11.53-1.024,23.069-1.479,34.561.376,20.6,10.373,24.84,27.058,23.144,47.665-2.134,25.964-2.6,52.208.056,78.128,3.812,37.187,40.881,61.19,71.854,40.137,44.451-30.227,96.219-26.253,143.7-40.075,31.784-9.253,45.327-23,49.13-53.329,3.244-25.894,1.175-56.147,31.681-72.508,23.442,2.933,34.589,16.256,36.929,37.607,2.19,20.073,9.451,39.393,10.5,59.649,1.687,32.389,18.52,50.913,54.088,52.331,30.936,1.234,43.771,16.991,41.347,45.126-4.642,15.608-1.025,33.449-14.354,46.72-16.675,1.9-33.974,1.742-49.875,6.084-41.319,11.275-74.119,10.277-77.6-44.864-25.408,47.2-100.4,54.4-153.066,19.582-15.883-11.328-21.578,16.282-36.556,8.439-76.17,39.918-154.073,10.041-231.174,4.368-35.158-2.582-70.073-12.527-104.067,4.473-83.076,41.2-169.9,25.176-254.97,10.689-31.169-5.314-59.42-11.091-89.209.525-85.994,6.5-172.09,18.418-257.021-8.4-9.461-2.985-21.662-1.908-31.635.622C555.415,270.82,460.632,263,365.942,245.976c-31.057-5.585-60.343-4.219-90.812,5.848-73.8,24.371-149.692,11.415-224.631,5.252-21.046-1.733-41.878-12.8-42.764-38.657C9.021,174.247,45.7,163.147,80.307,157.8c41.944-6.487,43.267-22.856,27.972-53.731-14.326-28.914-24.5-59.631-36.51-89.552,13.627-5.532,28.419-3.957,42.54-6.18,25.455,6.994,24.681,27.531,25.632,46.115,1.2,23.5,5.07,46.4,13.767,68.324,10.029,25.281,26.844,40.487,59.057,39.287,29.7-1.094,51.712-6.18,55.561-38.867,1.622-13.8,11.129-25.01,27.31-25.544,16.246-.534,24.393,10.575,29.51,23.714,12.257,31.453,36.659,38.106,67.063,26.288,32.213-12.527,35.438-36.241,25.744-65.216-8.668-25.929-33.48-52.76-.419-79.249,11.241-1.015,22.491-.7,33.713-.2,25.642,6.136,32.744,24.021,33.322,46.177.559,21.867,5.453,42.947,10.626,64.289,8.174,33.781,28.736,44.05,63.8,39.62,41.729-5.279,46.548-14.1,37.824-54.633-6.366-29.6-35.81-62.669,5.583-90.41a103.083,103.083,0,0,1,20.189-.543c29.034,5.27,31.365,28.757,36.78,49.214,4.064,15.354,2.4,31.54,3.141,47.359.839,17.665,1.529,37.388,23.46,42.4,22.09,5.042,47.7,5.786,66.933-4.806,22.016-12.115,9.181-34.018,3.122-51.009-9.74-27.295-25.073-53.749-1.762-81.4q2.852-1.615,5.714-3.213l39.772,4.333c21.046,8.386,28.988,23.942,29.3,44.706.261,17.306-.065,34.718,2.1,51.919,3.318,26.3,12.909,48.987,46.473,49.416,30.115.385,56.167-27.295,56.475-57.706.177-17.517-6.1-34.105-9.153-51.158-2.927-16.335-4.959-31.707,12-42.807,39.082-7.45,57.994,8.841,60.725,44.969,1.184,15.757,6.664,30.84,6.935,46.982.634,37.37,16.7,48.724,57.975,46.588,40.592-2.1,36.165-26.367,32.418-52.252-2.274-15.731-5.872-31.225-8.053-46.921-2.321-16.615-1.659-32.293,20.189-37.712" transform="translate(64.361 11.748)" fill="#f18c4a"/>
    <path id="Tracé_12" data-name="Tracé 12" d="M180.545,58.147c5.024-11.231,10.057-22.471,15.165-33.9C210.987,27.5,211.257,40.639,217.1,49.7c-11.763,4.456-20.7,19.652-36.556,8.447" transform="translate(1502.276 188.048)" fill="#d37b40"/>
    <path id="Tracé_13" data-name="Tracé 13" d="M943.575,206.847c-8.473-24.021-28.727-28.424-51.423-25.01C844.485,189,832.284,163.7,826.319,125.9c-5.863-37.064,1.79-77.726-27.394-109.826-16.889,18.62-40.2,19.1-63.391,19.609-59.877,1.313-119.828-1.3-179.49,7.161-28.391,4.027-55.459-.858-73.979-25.115l-37.488-1c-40.294,29.466-93.143,29.08-131.5-.963l-36.724-.053c-43.938,39.051-91.7,18.97-138.87,7.9q-4.418-4.149-8.808-8.307c65.012-18.234,132.308-10.295,198-10.732,134.443-.9,268.755,3.72,403.376-3.108,78.22-3.974,157.167,4.683,235.8,7.677-1.007,66.556-5.117,132.779-22.277,197.707" transform="translate(1070.694 3.396)" fill="#feb454"/>
    <path id="Tracé_14" data-name="Tracé 14" d="M153.006,26.4q-23.53-.053-47.079-.123C72.847,12.068,37.512,23.465,3.631,18.3,50.03-.17,98,15.219,145.167,12.689,232.95,7.971,320.789,4.3,408.629.583c15.221-.648,31.048-2.434,44.824,6.662a53.157,53.157,0,0,1-11.521,11.485c-13.329,11.152-30.544,16.107-46.8,16.6C314.265,37.76,232.745,51.443,153.006,26.4" transform="translate(30.213 -0.004)" fill="#dbb744"/>
    <path id="Tracé_15" data-name="Tracé 15" d="M93.5,12.962,54.7,10.388,51.282,7.613l2.75-3.37c1.016-1.1,1.995-2.232,2.927-3.414Q139.825,1.42,222.7,2.037c57.966,9,117.414-6.522,174.951,9.314a8.749,8.749,0,0,1,1.091,5.865C353.229,43.8,306.821,32.895,260.357,20.14l-19.611.026C190.74,34.3,140.985,44.117,93.5,12.962" transform="translate(426.707 6.429)" fill="#dbb744"/>
    <path id="Tracé_16" data-name="Tracé 16" d="M233.171,8.634c5.742,31.251,13.86,62.31,16.628,93.8,3.523,39.9-35.121,76.772-79.031,79.5-37.982,2.364-66.8-26.612-69.44-71.467-1.948-33.125,3.3-66.74-8.622-99.085C137.978-7.929,185.44,7.364,231.689,3.609q.741,2.521,1.482,5.025" transform="translate(771.395 10.722)" fill="#fcad5a"/>
    <path id="Tracé_17" data-name="Tracé 17" d="M109.1,10.217a33.132,33.132,0,0,1-1.482-5.025C163.813,3.879,220.2-5.076,276.017,9c-8.1,34.158,9.144,65.26,14.186,97.763,8.081,52.042,2.945,60.192-51.311,60.1a480.142,480.142,0,0,1-50.77-3.108c-33.918-3.694-50.7-19.81-40.3-53.18,7.783-24.975-4.213-48.733-4.306-73.288-.065-19.749-14.624-27.321-34.412-27.076" transform="translate(895.466 9.139)" fill="#fcab59"/>
    <path id="Tracé_18" data-name="Tracé 18" d="M317.236,1.219a59.994,59.994,0,0,1,.671,6.154c.112,33.063,20.72,60.472,28.671,91.426,10.616,41.292-7.093,64.542-60.212,77.192-42.745,10.172-70.763-6.233-81.007-47.306-1.016-4.1-2.806-8.036-4.968-14.085-4.222,2.968-8.473,4.482-10.066,7.31-9.638,17.123,12.341,43.673-15.267,54.44-33.331,13-70.68,13.428-104.691,8.474-25.39-3.7-29.4-35.129-38.523-55.929C16.156,93.179,20.341,54.635,19.726,16.95,49,3.486,80.2,11.47,110.51,10.025,179.4,6.743,248.327,4.117,317.236,1.219" transform="translate(163.493 9.453)" fill="#fba958"/>
    <path id="Tracé_19" data-name="Tracé 19" d="M167.326,4.486C213.3,19.893,258.641,2.6,304.294,2.272c59.951-.42,119.921.315,179.891.56-3.542,33.028-7.447,66.031-10.486,99.094-1.864,20.265-14.233,31.418-33.685,36.565-11.819,3.125-24.765,3.125-36.043,7.292-44.908,16.589-94.065,16.781-137.938,41.7-48.7,27.654-99.471-7.161-99.527-61.759-.047-40.417.522-80.825.82-121.241" transform="translate(1385.433 16.629)" fill="#fbab55"/>
    <path id="Tracé_20" data-name="Tracé 20" d="M55.811,3.358c49.111,1.987,98.875-7.721,147.259,7.213-4.371,31.453,9.013,59.141,20.468,87.416,16.824,41.52-1.165,67.615-47.8,70.583C84.957,174.356,72.514,164.228,64.3,76.138,62.028,51.8,66.26,26.844,55.811,3.358" transform="translate(464.391 16.033)" fill="#fcad5a"/>
    <path id="Tracé_21" data-name="Tracé 21" d="M73.713,9.737C119.59-1.634,165.83,1.92,212.1,6.787c-4.577,35.042,16.237,64.254,24.709,96.293,12.984,49.136.075,63.466-52.485,61.479-12.2-.464-24.5,2.048-36.752,2.206-36.463.473-58.926-11.651-56.307-51,2.414-36.215,1.37-72.614-17.551-106.027" transform="translate(613.35 16.832)" fill="#fcad5a"/>
    <path id="Tracé_22" data-name="Tracé 22" d="M155.608,2.189c43.789,5.392,87.578,11.24,131.5.945q4.166,29.965,8.333,59.912c-14.41,12.387-28.494,7.309-42.372-.867-9.358-5.515-19.77-12.334-29.864-5.033-13.217,9.559-30.125,21.718-23.675,38.631,5.826,15.276,24.327,8.124,37.237,5.27,19.825-4.386,39.352-8.141,59.606-3.256,19.238,54.747,13.282,64.63-42.624,70.688C147.49,179.981,137.768,170,153.623,71.31c3.635-22.62,1.482-46.063,1.985-69.121" transform="translate(1228.175 16.974)" fill="#fbab55"/>
    <path id="Tracé_23" data-name="Tracé 23" d="M275.282,44.52c15.557,33.125,10.4,61.5-21.149,84.379-10.532,7.633-21.587,12.08-33.806,5.532-18.175-9.752-37.143-13.323-57.5-9.227-26.1,5.252-27.338-10.82-27.767-27.846-7.335-32.241-11.931-65.138,25.11-84.116,34.767-17.805,84.195-2.757,115.112,31.278" transform="translate(1081.815 44.219)" fill="#feb25c"/>
    <path id="Tracé_24" data-name="Tracé 24" d="M283.925,77.167c-28.717,26.375-66.112,30.3-102.389,28.923-35.316-1.331-41.683-21.78-19.648-49.827,6.357-8.089,12.667-16.238,18.4-24.721,22.454-33.177,40.788-35.322,71.956-7.021,9.1,8.272,18.12,15.529,30.749,17.9q.461,17.372.932,34.744" transform="translate(1240.62 37.597)" fill="#fdb05a"/>
    <path id="Tracé_25" data-name="Tracé 25" d="M279.528,72.506c-17.5-4.815-34.757-10.82-52.569-14.225-63.391-12.142-85.966,5.454-87.653,67.055-20.767-36.985-.82-76.7-8.706-114.562,45.141-20.7,93.18,3.685,138.889-7.9-9.106,24.8,10.914,45.888,10.038,69.637" transform="translate(1077.57 16.233)" fill="#fdb05a"/>
  </g>
</svg>
