<svg id="Groupe_2" data-name="Groupe 2" xmlns="http://www.w3.org/2000/svg" width="57" height="57" viewBox="0 0 57 57">
  <g id="Groupe_3" data-name="Groupe 3">
    <path id="Tracé_1" data-name="Tracé 1" d="M57,28.5A28.5,28.5,0,1,1,28.5,0,28.5,28.5,0,0,1,57,28.5" fill="#9dffb0"/>
    <path id="Tracé_2" data-name="Tracé 2" d="M78.485,51.764l4.392,3.254-5.835,7.123c3.191.7,5.39,2.184,6.667,4.792a10.633,10.633,0,0,1,1.054,5.978c-.568,4.972-3.311,8.154-5.952,8.772,1.165-4.347.321-6.759-2.657-7.6a5.355,5.355,0,0,0-6.881,3.849c-.376,1.572-.369,3.29.956,4.376A22.349,22.349,0,0,0,74.28,84.44a17.065,17.065,0,0,1-2.492.716,34.494,34.494,0,0,1-12.905-.528c-2.57-.614-5.088-1.441-7.63-2.172-.668-.192-.984-.556-.542-1.219,2.048-3.073,2.608-6.615,3.278-10.139.677-3.559,1.466-7.1,3.639-10.13,3.186-4.446,9.457-6.153,14.152-3.68a24.9,24.9,0,0,1,3.941,3.267c.477-1.218,1.105-2.615,1.568-4.066s.752-2.936,1.2-4.725" transform="translate(-39.169 -40.145)" fill="#fff"/>
  </g>
</svg>
